<svg height="26" viewBox="0 0 26 26" width="26" xmlns="http://www.w3.org/2000/svg"><path d="m567.5 2257.67a9.225 9.225 0 1 1 -9.226 9.23 9.227 9.227 0 0 1 9.226-9.23zm0 1.73a7.5 7.5 0 1 1 -7.5 7.5 7.5 7.5 0 0 1 7.5-7.5zm-3.774 7.6a1.05 1.05 0 0 1 -1.049 1.05h-7.129a1.05 1.05 0 0 1 0-2.1h7.129a1.05 1.05 0 0 1 1.049 1.05zm16.774 0a1.049 1.049 0 0 1 -1.048 1.05h-7.129a1.05 1.05 0 0 1 0-2.1h7.129a1.049 1.049 0 0 1 1.048 1.05zm-13 3.77a1.049 1.049 0 0 1 1.048 1.05v7.13a1.048 1.048 0 1 1 -2.1 0v-7.13a1.049 1.049 0 0 1 1.052-1.05zm0-16.77a1.049 1.049 0 0 1 1.048 1.05v7.13a1.048 1.048 0 1 1 -2.1 0v-7.13a1.049 1.049 0 0 1 1.052-1.05z" fill="#fff" fill-rule="evenodd" transform="translate(-554.5 -2254)"/></svg>